<?xml version="1.0" encoding="UTF-8" standalone="no"?>
<svg width="71px" height="71px" viewBox="0 0 71 71" version="1.1" xmlns="http://www.w3.org/2000/svg" xmlns:xlink="http://www.w3.org/1999/xlink">
    <!-- Generator: Sketch 39.1 (31720) - http://www.bohemiancoding.com/sketch -->
    <title>Group</title>
    <desc>Created with Sketch.</desc>
    <defs></defs>
    <g id="Page-1" stroke="none" stroke-width="1" fill="none" fill-rule="evenodd">
        <g id="Group">
            <path d="M67.4879,0.3867 L34.1179,0.3867 C28.859,0.3867 25.3375,3.9002 25.3375,3.9002 L4.269,24.9704 C4.269,24.9704 0.7535,28.4882 0.7535,33.7507 L0.7535,67.121 C0.7535,70.6309 4.269,70.6309 4.269,70.6309 L37.6325,70.6309 C42.8931,70.6309 46.4177,67.121 46.4177,67.121 L67.4879,46.0477 C67.4879,46.0477 70.9997,42.5342 70.9997,37.2665 L70.9997,3.9002 C70.9997,0.3867 67.4879,0.3867 67.4879,0.3867 L67.4879,0.3867 L67.4879,0.3867 Z" id="Fill-22-path" fill="#FFFFFF"></path>
            <path d="M67.4879,0.3867 L34.1179,0.3867 C28.859,0.3867 25.3375,3.9002 25.3375,3.9002 L4.269,24.9704 C4.269,24.9704 0.7535,28.4882 0.7535,33.7507 L0.7535,67.121 C0.7535,70.6309 4.269,70.6309 4.269,70.6309 L37.6325,70.6309 C42.8931,70.6309 46.4177,67.121 46.4177,67.121 L67.4879,46.0477 C67.4879,46.0477 70.9997,42.5342 70.9997,37.2665 L70.9997,3.9002 C70.9997,0.3867 67.4879,0.3867 67.4879,0.3867 L67.4879,0.3867 L67.4879,0.3867 Z M66.4107,14.491 L66.4107,14.491 C66.4107,15.543 65.5572,16.3945 64.5024,16.3945 L56.8942,16.3945 C54.9908,16.3945 54.9908,18.2985 54.9908,18.2985 L54.9908,25.9022 C54.9908,25.9022 54.9908,27.8045 56.8942,27.8045 L64.5024,27.8045 C65.5572,27.8045 66.4107,28.656 66.4107,29.7088 L66.4107,37.3173 C66.4107,38.3681 65.5572,39.2196 64.5024,39.2196 L56.8942,39.2196 C56.8942,39.2196 54.9908,39.2196 54.9908,41.1239 L54.9908,48.7344 C54.9908,49.7897 54.1432,50.6396 53.0944,50.6396 L45.48,50.6396 C44.436,50.6396 43.5768,49.7897 43.5768,48.7344 L43.5768,41.1239 C43.5768,41.1239 43.5768,39.2196 41.6764,39.2196 L34.0688,39.2196 C33.0172,39.2196 32.1645,38.3681 32.1645,37.3173 L32.1645,29.7088 C32.1645,28.656 33.0172,27.8045 34.0688,27.8045 L41.6764,27.8045 C41.6764,27.8045 43.5768,27.8045 43.5768,25.9022 L43.5768,18.2985 C43.5768,17.2432 44.436,16.3945 45.48,16.3945 L53.0944,16.3945 C54.9908,16.3945 54.9908,14.491 54.9908,14.491 L54.9908,6.8769 C54.9908,5.8249 55.8463,4.9774 56.8942,4.9774 L64.5024,4.9774 C65.5572,4.9774 66.4107,5.8249 66.4107,6.8769 L66.4107,14.491 L66.4107,14.491 Z" id="Fill-22" fill="#AFD135"></path>
        </g>
    </g>
</svg>