<?xml version="1.0" encoding="UTF-8" standalone="no"?>
<svg width="30px" height="20px" viewBox="0 0 30 20" version="1.1" xmlns="http://www.w3.org/2000/svg" xmlns:xlink="http://www.w3.org/1999/xlink" xmlns:sketch="http://www.bohemiancoding.com/sketch/ns">
    <!-- Generator: Sketch 3.4.4 (17249) - http://www.bohemiancoding.com/sketch -->
    <title>brand</title>
    <desc>Created with Sketch.</desc>
    <defs>
        <linearGradient x1="37.7404303%" y1="10.6106371%" x2="69.7007423%" y2="93.6539561%" id="linearGradient-1">
            <stop stop-color="#CEE1ED" offset="0%"></stop>
            <stop stop-color="#7EC0EE" offset="100%"></stop>
        </linearGradient>
        <linearGradient x1="37.7419318%" y1="10.6106371%" x2="69.6983295%" y2="93.6539561%" id="linearGradient-2">
            <stop stop-color="#CEE1ED" offset="0%"></stop>
            <stop stop-color="#7EC0EE" offset="100%"></stop>
        </linearGradient>
    </defs>
    <g id="Page-1" stroke="none" stroke-width="1" fill="none" fill-rule="evenodd" sketch:type="MSPage">
        <g id="brand" sketch:type="MSLayerGroup" fill="url(#linearGradient-2)">
            <g id="Page-1" sketch:type="MSShapeGroup">
                <g id="Artboard-2">
                    <g id="SkyLogo">
                        <path d="M5.14026222,8.39572421 C5.0509583,7.9488207 5.00411331,7.48658505 5.00411331,7.01340474 C5.00411331,3.14000825 8.14313024,0 12.0153038,0 C14.6944698,0 17.0226524,1.50321247 18.2029502,3.71248403 L18.2029502,3.71248403 C18.944975,3.38537895 19.7655198,3.20376334 20.6284698,3.20376334 C23.9534884,3.20376334 26.6489487,5.90007478 26.6489487,9.22614349 C26.6489487,10.1445917 26.4434165,11.0150202 26.0758512,11.7939161 C26.2653716,11.7605115 26.4604005,11.7430887 26.6594976,11.7430887 C28.5044592,11.7430887 30.0000961,13.239198 30.0000961,15.0847423 C30.0000961,16.6812969 28.8808007,18.0163435 27.384341,18.3475162 L27.384341,18.3475162 C26.85288,18.5408021 25.960223,18.6067486 24.5939079,18.5025381 C11.2921794,17.4879994 13.8149304,20.558375 5.40609148,19.1878174 C4.72089853,19.0761378 4.16803034,18.926035 3.73117748,18.7445124 C1.64574944,18.0232707 0.148059067,16.0418743 0.148059067,13.7105628 C0.148059067,10.8808892 2.35450937,8.56672247 5.14026222,8.39572421 L5.14026222,8.39572421 Z" id="Oval-1"></path>
                    </g>
                </g>
            </g>
        </g>
    </g>
</svg>