<?xml version="1.0" encoding="UTF-8" standalone="no"?>
<svg width="1055px" height="709px" viewBox="0 0 1055 709" version="1.1" xmlns="http://www.w3.org/2000/svg" xmlns:xlink="http://www.w3.org/1999/xlink">
    <!-- Generator: Sketch 3.8.3 (29802) - http://www.bohemiancoding.com/sketch -->
    <title>base</title>
    <desc>Created with Sketch.</desc>
    <defs>
        <linearGradient x1="44.8020635%" y1="12.2068887%" x2="57.9885454%" y2="100%" id="linearGradient-1">
            <stop stop-color="#CEE1ED" offset="0%"></stop>
            <stop stop-color="#7EC0EE" offset="100%"></stop>
        </linearGradient>
    </defs>
    <g id="Page-1" stroke="none" stroke-width="1" fill="none" fill-rule="evenodd">
        <g id="outline" transform="translate(25.000000, 25.000000)" stroke-width="50" stroke="url(#linearGradient-1)">
            <g id="Page-1">
                <path d="M167.994657,282.705724 C164.989621,267.657329 163.413308,252.09266 163.413308,236.159457 C163.413308,105.73219 269.039807,0 399.336696,0 C489.489416,0 567.831708,50.6170476 607.548193,125.008928 L607.548193,125.008928 C632.516994,113.994455 660.127954,107.878988 689.165831,107.878988 C801.051203,107.878988 891.75222,198.670761 891.75222,310.668087 C891.75222,341.594612 884.836157,370.904187 872.46775,397.131623 C878.845024,396.006805 885.40766,395.420134 892.107185,395.420134 C954.189309,395.420134 1004.51681,445.797998 1004.51681,507.942245 C1004.51681,561.702361 966.853029,606.656829 916.497838,617.808271 L916.497838,617.808271 C898.614417,624.316706 868.576913,626.537297 822.601027,623.028258 C375.003885,588.866121 459.893314,692.253599 176.939691,646.103384 C153.883259,642.342842 135.279495,637.288493 120.579594,631.17616 C50.4058842,606.890088 0.0092811,540.171351 0.0092811,461.67007 C0.0092811,366.387651 74.255335,288.463678 167.994657,282.705724 L167.994657,282.705724 L167.994657,282.705724 Z" id="base"></path>
            </g>
        </g>
    </g>
</svg>