<?xml version="1.0" encoding="UTF-8" standalone="no"?>
<svg
   xmlns:sketch="http://www.bohemiancoding.com/sketch/ns"
   xmlns:dc="http://purl.org/dc/elements/1.1/"
   xmlns:cc="http://creativecommons.org/ns#"
   xmlns:rdf="http://www.w3.org/1999/02/22-rdf-syntax-ns#"
   xmlns:svg="http://www.w3.org/2000/svg"
   xmlns="http://www.w3.org/2000/svg"
   xmlns:sodipodi="http://sodipodi.sourceforge.net/DTD/sodipodi-0.dtd"
   xmlns:inkscape="http://www.inkscape.org/namespaces/inkscape"
   width="130"
   height="130"
   viewBox="0 0 130 130"
   version="1.1"
   id="svg2"
   inkscape:version="0.91 r13725"
   sodipodi:docname="xamagon.svg">
  <metadata
     id="metadata15">
    <rdf:RDF>
      <cc:Work
         rdf:about="">
        <dc:format>image/svg+xml</dc:format>
        <dc:type
           rdf:resource="http://purl.org/dc/dcmitype/StillImage" />
        <dc:title>xamagon</dc:title>
      </cc:Work>
    </rdf:RDF>
  </metadata>
  <sodipodi:namedview
     pagecolor="#ffffff"
     bordercolor="#666666"
     borderopacity="1"
     objecttolerance="10"
     gridtolerance="10"
     guidetolerance="10"
     inkscape:pageopacity="0"
     inkscape:pageshadow="2"
     inkscape:window-width="1561"
     inkscape:window-height="844"
     id="namedview13"
     showgrid="false"
     fit-margin-top="0"
     fit-margin-left="0"
     fit-margin-right="0"
     fit-margin-bottom="0"
     inkscape:zoom="6.5764414"
     inkscape:cx="47.555117"
     inkscape:cy="71.863846"
     inkscape:window-x="0"
     inkscape:window-y="0"
     inkscape:window-maximized="0"
     inkscape:current-layer="layer2" />
  <!-- Generator: Sketch 3.2 (9961) - http://www.bohemiancoding.com/sketch -->
  <title
     id="title4">xamagon</title>
  <desc
     id="desc6">Created with Sketch.</desc>
  <defs
     id="defs8" />
  <g
     inkscape:groupmode="layer"
     id="layer2"
     inkscape:label="Layer 2"
     transform="translate(-39,-27.999989)">
    <g
       style="fill:#ffffff;fill-rule:evenodd;stroke:none;stroke-width:1"
       id="Page-1-1"
       sketch:type="MSPage"
       transform="matrix(0.77096482,0,0,0.71068627,27.750749,8.3570009)">
      <g
         style="fill:#ffffff"
         id="xamagon-6"
         sketch:type="MSArtboardGroup">
        <path
           inkscape:connector-curvature="0"
           d="m 71.343773,60.052966 c -3.429998,0.0073 -6.787579,1.954269 -8.514263,4.924477 L 35.973999,111.62847 c -1.699795,2.97816 -1.699795,6.87084 0,9.84899 l 26.855511,46.65103 c 1.726865,2.97024 5.084265,4.91775 8.514263,4.92448 l 53.710827,0 c 3.43,-0.007 6.7874,-1.95424 8.51426,-4.92448 l 26.85551,-46.65103 c 1.69979,-2.97815 1.69962,-6.87083 0,-9.84899 L 133.56886,64.977443 C 131.842,62.007235 128.4846,60.059694 125.0546,60.052966 l -53.710827,0 z"
           id="Logo-9"
           sketch:type="MSShapeGroup"
           style="fill:#ffffff"
           sodipodi:nodetypes="cccccccccccccc" />
      </g>
    </g>
  </g>
  <g
     inkscape:groupmode="layer"
     id="layer1"
     inkscape:label="Layer 1"
     transform="translate(-39,-27.999989)"
     sodipodi:insensitive="true">
    <g
       style="fill:none;fill-rule:evenodd;stroke:none;stroke-width:1"
       id="Page-1"
       sketch:type="MSPage"
       transform="translate(2,-8)">
      <g
         id="xamagon"
         sketch:type="MSArtboardGroup"
         style="fill:#3498db">
        <path
           d="m 75.64462,45 c -3.429998,0.0073 -6.787579,1.954269 -8.514263,4.924477 L 40.274846,96.575505 c -1.699795,2.97816 -1.699795,6.870835 0,9.848985 l 26.855511,46.65103 c 1.726865,2.97024 5.084265,4.91775 8.514263,4.92448 l 53.71083,0 c 3.43,-0.007 6.7874,-1.95424 8.51426,-4.92448 l 26.85551,-46.65103 c 1.69979,-2.97815 1.69962,-6.870825 0,-9.848985 L 137.86971,49.924477 C 136.14285,46.954269 132.78545,45.006728 129.35545,45 l -53.71083,0 0,0 z m 0.487428,27.291416 c 0.07378,-0.0073 0.151171,-0.0073 0.225184,0 l 9.264311,0 c 0.410089,0.0085 0.807877,0.245484 1.012668,0.601454 L 102.35,100.89854 c 0.0791,0.13847 0.13008,0.29274 0.14942,0.45109 0.0194,-0.15839 0.0703,-0.31267 0.14942,-0.45109 l 15.67817,-28.00567 c 0.21129,-0.366759 0.62771,-0.605066 1.05011,-0.601454 l 9.26431,0 c 0.82037,0.0073 1.43472,1.040548 1.05029,1.766804 l -15.3405,27.44179 15.3405,27.40419 c 0.42082,0.73043 -0.20865,1.81161 -1.05029,1.80438 l -9.26431,0 c -0.42978,-0.004 -0.84867,-0.25843 -1.05011,-0.63904 l -15.67817,-28.00567 c -0.0791,-0.13847 -0.13008,-0.29275 -0.14942,-0.45109 -0.0194,0.15837 -0.0703,0.31268 -0.14942,0.45109 l -15.715789,28.00567 c -0.195465,0.36985 -0.59537,0.6222 -1.012668,0.63904 l -9.264311,0 c -0.841636,0.007 -1.470934,-1.07395 -1.050115,-1.80438 L 90.647616,101.50001 75.307117,74.05822 c -0.367731,-0.662624 0.08092,-1.625369 0.824931,-1.766804 l 0,0 z"
           id="Logo"
           sketch:type="MSShapeGroup"
           inkscape:connector-curvature="0" />
      </g>
    </g>
  </g>
</svg>
