<?xml version="1.0" encoding="UTF-8" standalone="no"?>
<svg width="42px" height="42px" viewBox="0 0 42 42" version="1.1" xmlns="http://www.w3.org/2000/svg" xmlns:xlink="http://www.w3.org/1999/xlink" xmlns:sketch="http://www.bohemiancoding.com/sketch/ns">
    <!-- Generator: Sketch 3.3.2 (12043) - http://www.bohemiancoding.com/sketch -->
    <title>Oval 1</title>
    <desc>Created with Sketch.</desc>
    <defs></defs>
    <g id="Page-1" stroke="none" stroke-width="1" fill="none" fill-rule="evenodd" sketch:type="MSPage">
        <g id="Desktop" sketch:type="MSArtboardGroup" transform="translate(-58.000000, -972.000000)" fill="#000000">
            <g id="Sidebar" sketch:type="MSLayerGroup">
                <path d="M83.6393557,1013.48581 C82.1468688,1013.82236 80.5941789,1014 79,1014 C77.6140717,1014 76.259501,1013.86574 74.9485839,1013.60952 C76.6703415,1013.05445 76.9332889,1012.1038 76.9332889,1012.1038 C77.2157022,1010.87328 75.6019121,1009.78397 75.6019121,1009.78397 C77.4577707,997.539341 78.2041486,998.003306 78.9505265,998.003306 C79.6969044,998.003306 80.4634547,999.939854 82.9244845,1009.44104 C82.9244845,1009.44104 80.2617309,1012.1038 82.9244845,1013.17293 C83.1396519,1013.29396 83.3809675,1013.39806 83.6393557,1013.48581 Z M88.2707434,1011.8481 C95.2193276,1008.42382 100,1001.2702 100,993 C100,981.40202 90.5979797,972 79,972 C67.4020203,972 58,981.40202 58,993 C58,1001.61394 63.1863262,1009.01654 70.6067098,1012.25555 C71.2929283,1010.92078 73.6048469,1009.34018 73.6048469,1009.34018 C75.1984647,992.496248 73.4838127,992.637454 73.4838126,991.649008 C73.4838126,991.649008 72.8181243,988.986254 71.9103674,991.346422 C71.5069199,992.59711 74.1696735,993.948659 74.1696734,996.006241 C74.1696734,996.006241 74.1696734,999.274166 70.982438,999.496062 C70.982438,999.496062 72.9996757,998.326064 72.9996757,996.550895 C72.9996757,995.784345 71.9910567,995.159001 70.6193353,993.948659 C69.2476139,992.738316 68.6750058,992.437272 68.9248557,990.660562 C69.0031292,989.437538 70.982438,986.343673 73.7460535,985.113158 L76.0053596,984.346608 C76.9131165,982.6723 76.4693242,978.932448 78.9101817,979.000928 C81.3510392,979.069407 80.483627,982.107474 81.6132801,983.882643 C82.0167276,984.427297 84.8610326,985.113157 84.8610326,985.113157 C87.9474061,987.59436 89.3796448,990.136079 89.0972316,991.689352 C88.6697335,994.040592 84.5181022,994.47314 84.5181022,996.490378 C84.5181022,997.979944 86.6765464,999.375027 86.6765464,999.375027 C86.6765464,999.375027 83.4893111,998.951408 83.2068978,996.550895 C83.4893111,993.545211 85.6275829,993.303142 85.9099962,991.689352 C86.0597632,990.94663 85.1636183,988.86522 84.2155166,991.346422 C84.2155166,991.346422 81.6132801,994.654692 84.8610326,1008.79553 C84.8610326,1008.79553 87.5112817,1010.11325 88.2707434,1011.8481 Z" id="Oval-1" sketch:type="MSShapeGroup"></path>
            </g>
        </g>
    </g>
</svg>