<svg xmlns="http://www.w3.org/2000/svg" width="130" height="130" viewBox="0 0 130 130"><g transform="translate(-16.314 25.754)"><circle cx="81.403" cy="39.253" r="64.813" fill="#fff"/><path d="M81.343-25.307c-35.805 0-64.83 29.02-64.83 64.824 0 35.807 29.025 64.83 64.83 64.83 35.802 0 64.83-29.022 64.83-64.83 0-35.804-29.028-64.824-64.83-64.824zm0 122.667c-31.896 0-57.845-25.95-57.845-57.844 0-31.892 25.95-57.843 57.845-57.843 31.886 0 57.84 25.95 57.84 57.843 0 31.895-25.954 57.844-57.84 57.844z" fill="#94d500"/><path d="M81.343-13.495c-29.237 0-53.016 23.78-53.016 53.012 0 29.234 23.78 53.016 53.016 53.016 29.23 0 53.017-23.782 53.017-53.016 0-29.23-23.788-53.012-53.017-53.012zM66.29 48.725V72.33H60.14a4.906 4.906 0 0 0-.71-.052 6.865 6.865 0 0 1-6.862-6.87V25.758c1.94.23 7.46.962 13.725 2.427v20.54zm0-30.19v4.232c-4.966-.385-9.754-.618-13.724-.758V8.565H66.29v9.97zM90.537 72.2l-16.572.007v-41.9c6.035 1.97 11.714 4.68 14.648 8.32v19.805l1.937-.01c9.922-.046 17.996-8.166 17.996-18.093 0-9.928-8.074-18.038-17.997-18.087l-1.938-.01V25.975c-4.204-1.087-9.345-1.89-14.648-2.483V8.498h16.49l1.017-.02c17.11.534 30.85 14.622 30.85 31.852 0 17.535-14.256 31.83-31.784 31.87z" fill="#94d500"/></g></svg>