<svg xmlns="http://www.w3.org/2000/svg" version="1" width="130" height="130" viewBox="0 0 502.08245 1968.6538"><g fill="#fff"><path d="M-538.208 695.38c0-9.528-1.737-25.977 9.528-31.17 7.793-3.463 45.89-.87 56.282-.87 77.93 0 121.23 53.68 121.23 129.883 0 125.557-78.796 128.148-187.04 128.148V695.38zm129.884 234.656c85.723-7.792 156.726-55.418 156.726-148.933 0-120.364-99.58-142.877-198.296-142.877-36.37.872-73.602 2.6-109.972 3.464-49.353-.872-99.58-2.6-148.933-3.464v19.92c27.706 0 64.075-.872 73.604 29.442 7.792 23.377 7.792 87.46 7.792 115.164v244.193c0 27.705 0 91.787-7.792 115.164-9.53 29.448-45.89 29.448-73.603 29.448v19.92c43.29-.87 86.588-2.6 129.886-3.463 41.56.873 82.26 2.6 122.092 3.464v-19.922c-27.705 0-63.21.873-73.602-29.45-7.793-23.376-7.793-87.45-7.793-115.163v-102.17c45.89 0 42.426 5.19 71.003 38.096l143.74 178.383 40.698 50.226c21.65-.873 43.298-2.6 64.938-3.465 25.977.873 51.954 2.6 77.93 3.464v-19.922c-44.16-6.928-57.153-19.048-84.858-51.09l-183.558-210.432zM201.003 1046.936c0 27.705 0 91.788-8.656 115.164-11.257 29.45-46.762 29.45-74.467 29.45v19.92c43.29-.872 87.45-2.6 130.748-3.463 41.562.872 83.995 2.6 124.693 3.464v-19.92c-27.704 0-63.21 0-74.457-29.45-8.665-23.376-8.665-87.45-8.665-115.164V802.743c0-27.704 0-91.778 8.665-115.164 11.248-29.442 46.753-29.442 74.458-29.442v-19.912c-43.288.872-86.586 2.6-130.748 3.464-41.56-.872-83.13-2.6-124.692-3.464v19.92c27.705 0 63.21 0 74.467 29.442 8.656 23.377 8.656 87.46 8.656 115.164v244.184zM1206.623 638.226H674.948V773.31h19.92c3.473-103.043 45.026-107.37 130.758-107.37 34.64 0 72.738-2.6 72.738 23.376v410.438c0 64.074-12.128 88.323-96.115 91.787v19.922c46.752-.872 91.778-2.6 137.684-3.464 47.61.873 96.115 2.6 143.74 3.464v-19.92c-84.002-3.465-96.13-27.705-96.13-91.788V689.316c0-27.705 51.96-23.377 84.002-23.377 81.387 0 114.292 22.512 119.484 107.37h23.394l-7.8-135.084z" clip-rule="evenodd" fill-rule="evenodd"/><path d="M-77.358 925.598c0-19.032 15.424-34.455 34.456-34.455 19.03 0 34.455 15.423 34.455 34.455 0 19.032-15.432 34.455-34.455 34.455-19.024 0-34.456-15.423-34.456-34.455zM500.707 925.598c0-19.032 15.432-34.455 34.455-34.455 19.023 0 34.455 15.423 34.455 34.455 0 19.032-15.432 34.455-34.455 34.455-19.023 0-34.455-15.423-34.455-34.455z"/></g></svg>