<svg width="42" height="42" viewBox="0 0 42 42" xmlns="http://www.w3.org/2000/svg"><title>Oval 1</title><path d="M25.64 41.486A21.07 21.07 0 0 1 21 42c-1.386 0-2.74-.134-4.05-.39 1.72-.556 1.983-1.506 1.983-1.506.283-1.23-1.33-2.32-1.33-2.32 1.855-12.245 2.6-11.78 3.348-11.78.747 0 1.513 1.936 3.974 11.437 0 0-2.662 2.664 0 3.733.216.12.457.225.715.313zm4.63-1.638C37.22 36.424 42 29.27 42 21 42 9.402 32.598 0 21 0S0 9.402 0 21c0 8.614 5.186 16.017 12.607 19.256.686-1.335 2.998-2.916 2.998-2.916 1.593-16.844-.12-16.703-.12-17.69 0 0-.667-2.664-1.575-.304-.403 1.25 2.26 2.603 2.26 4.66 0 0 0 3.268-3.188 3.49 0 0 2.018-1.17 2.018-2.945 0-.766-1.01-1.39-2.38-2.6-1.372-1.212-1.945-1.513-1.695-3.29.078-1.222 2.057-4.316 4.82-5.547l2.26-.766c.908-1.675.464-5.415 2.905-5.346 2.44.07 1.574 3.107 2.703 4.883.404.544 3.248 1.23 3.248 1.23 3.087 2.48 4.52 5.023 4.237 6.576-.427 2.35-4.58 2.783-4.58 4.8 0 1.49 2.16 2.885 2.16 2.885s-3.188-.424-3.47-2.824c.282-3.005 2.42-3.247 2.703-4.86.15-.743-.746-2.825-1.694-.344 0 0-2.603 3.31.645 17.45 0 0 2.65 1.317 3.41 3.052z" fill="#000" fill-rule="evenodd"/></svg>