<svg xmlns="http://www.w3.org/2000/svg" width="130" height="130" viewBox="0 0 130 130"><title>xamagon</title><path d="M43.754 23.036c-2.644.005-5.233 1.39-6.564 3.5L16.485 59.69c-1.31 2.116-1.31 4.883 0 7L37.19 99.843c1.33 2.11 3.92 3.495 6.564 3.5h41.41c2.644-.006 5.232-1.39 6.564-3.5l20.704-33.155c1.31-2.117 1.31-4.884 0-7L91.728 26.536c-1.332-2.11-3.92-3.495-6.565-3.5h-41.41z" fill="#fff" fill-rule="evenodd"/><path d="M38.645 9c-3.43.007-6.788 1.954-8.515 4.924L3.275 60.576c-1.7 2.978-1.7 6.87 0 9.85l26.855 46.65c1.727 2.97 5.085 4.917 8.515 4.924h53.71c3.43-.007 6.788-1.954 8.515-4.924l26.855-46.65c1.7-2.98 1.7-6.872 0-9.85L100.87 13.924c-1.727-2.97-5.085-4.917-8.515-4.924h-53.71zm.487 27.29a1.16 1.16 0 0 1 .225 0h9.265c.41.01.807.247 1.012.603L65.35 64.9c.08.137.13.29.15.45.02-.16.07-.313.15-.45l15.677-28.007c.21-.367.628-.605 1.05-.602h9.264c.822.01 1.436 1.042 1.052 1.768L77.352 65.5l15.34 27.404c.42.73-.21 1.812-1.05 1.805h-9.265a1.226 1.226 0 0 1-1.05-.64L65.65 66.064a1.207 1.207 0 0 1-.15-.45c-.02.157-.07.31-.15.45L49.634 94.07c-.195.37-.595.622-1.012.64h-9.265c-.84.006-1.47-1.075-1.05-1.806L53.647 65.5l-15.34-27.442c-.368-.662.08-1.625.825-1.767z" fill="#3498db" fill-rule="evenodd"/></svg>