<?xml version="1.0" standalone="no"?>
<!DOCTYPE svg PUBLIC "-//W3C//DTD SVG 20010904//EN"
 "http://www.w3.org/TR/2001/REC-SVG-20010904/DTD/svg10.dtd">
<svg version="1.0" xmlns="http://www.w3.org/2000/svg"
 width="1500.000000pt" height="1500.000000pt" viewBox="0 0 1500.000000 1500.000000"
 preserveAspectRatio="xMidYMid meet">
<metadata>
Created by potrace 1.11, written by Peter Selinger 2001-2013
</metadata>
<g transform="translate(0.000000,1500.000000) scale(0.100000,-0.100000)"
fill="#000000" stroke="none">
<path d="M6069 11495 c-2 -2 -35 -6 -74 -9 -399 -31 -837 -168 -1178 -370
-156 -92 -385 -256 -465 -333 -10 -10 -50 -48 -88 -84 -348 -333 -599 -735
-741 -1184 -106 -335 -138 -537 -138 -885 0 -194 6 -286 25 -410 6 -36 13 -86
17 -112 l6 -48 -34 -1 c-19 0 -47 -2 -64 -4 -16 -2 -55 -7 -85 -10 -30 -4 -57
-8 -60 -10 -3 -2 -23 -6 -45 -9 -254 -40 -684 -231 -878 -391 -7 -5 -33 -26
-57 -45 -267 -205 -515 -534 -653 -865 -55 -132 -116 -342 -132 -455 -4 -24
-8 -47 -10 -50 -18 -30 -27 -462 -11 -575 5 -33 9 -69 10 -80 10 -93 58 -280
106 -417 104 -292 277 -563 505 -792 245 -247 493 -403 841 -531 54 -20 108
-40 119 -45 28 -12 146 -46 240 -69 86 -21 111 -27 193 -41 30 -5 61 -11 70
-14 10 -3 35 -7 57 -10 44 -5 92 -12 175 -26 30 -5 75 -12 100 -15 25 -3 56
-8 70 -10 14 -3 42 -7 64 -10 21 -2 55 -7 75 -9 20 -3 59 -8 86 -11 28 -3 68
-8 90 -10 85 -11 113 -14 195 -20 47 -3 99 -8 115 -10 158 -20 774 -28 950
-12 50 4 110 10 134 12 25 2 67 6 95 10 28 3 69 8 91 11 170 21 399 66 815
159 162 37 304 68 315 71 72 15 180 36 203 40 15 3 34 7 42 9 8 2 29 6 45 9
17 3 84 14 150 26 66 11 134 23 150 25 17 2 48 7 70 10 58 9 94 14 145 20 25
3 54 7 65 9 34 7 160 20 285 31 41 3 91 8 110 10 32 3 101 9 254 20 32 2 127
7 210 11 83 3 183 8 221 10 103 5 938 5 1095 -1 404 -14 570 -21 710 -30 52
-3 138 -8 190 -11 164 -10 202 -12 450 -29 36 -3 99 -7 140 -11 171 -14 555
-19 695 -8 194 14 453 76 633 150 80 33 204 98 234 123 7 6 36 28 64 48 99 73
284 263 284 292 0 5 3 11 8 13 10 4 61 86 105 170 51 95 115 295 132 413 19
137 13 361 -14 480 -60 258 -167 466 -336 648 -92 99 -224 206 -315 255 -127
69 -282 132 -356 145 -16 3 -51 10 -79 15 -92 19 -132 23 -236 24 -102 1 -225
-9 -241 -18 -14 -9 -9 8 38 126 93 232 147 454 171 705 13 135 6 445 -11 542
-2 10 -7 41 -10 68 -4 28 -19 99 -32 160 -145 635 -540 1189 -1099 1540 -214
134 -563 279 -754 311 -14 3 -33 7 -41 9 -8 3 -53 11 -100 19 -243 42 -572 43
-810 2 -118 -21 -145 -27 -250 -55 -88 -24 -226 -71 -292 -99 l-47 -21 -18 27
c-9 15 -26 43 -36 62 -11 19 -44 73 -75 120 -217 333 -507 623 -832 835 -183
119 -230 144 -495 265 -35 16 -218 78 -290 98 -110 32 -197 52 -294 68 -18 3
-41 7 -50 9 -9 2 -44 6 -76 10 -33 4 -71 9 -85 12 -30 6 -466 14 -471 8z"/>
</g>
</svg>
