<svg width="197" height="129" viewBox="0 0 197 129" xmlns="http://www.w3.org/2000/svg"><title>SkyLogo</title><defs><linearGradient x1="21.409%" y1="10.611%" x2="95.945%" y2="93.654%" id="a"><stop stop-color="#CEE1ED" offset="0%"/><stop stop-color="#7EC0EE" offset="100%"/></linearGradient></defs><path d="M33.754 55.132a46.288 46.288 0 0 1-.894-9.077C32.86 20.62 53.473 0 78.9 0c17.594 0 32.882 9.87 40.633 24.38a39.388 39.388 0 0 1 15.927-3.342c21.835 0 39.535 17.706 39.535 39.547 0 6.03-1.35 11.747-3.764 16.862a22.066 22.066 0 0 1 3.834-.334c12.115 0 21.937 9.824 21.937 21.943 0 10.485-7.35 19.25-17.176 21.426-3.49 1.27-9.352 1.702-18.324 1.018-87.348-6.662-70.782 13.5-126 4.5-4.5-.733-8.13-1.72-11-2.91C10.808 118.352.973 105.34.973 90.032c0-18.582 14.49-33.778 32.782-34.9z" fill="url(#a)" fill-rule="evenodd"/></svg>