<svg version="1" xmlns="http://www.w3.org/2000/svg" width="610.667" height="610.667" viewBox="0 0 458.000000 458.000000"><path d="M170.8 79.5c-.2.2-2.5.6-5.3.9-37.6 5-72.3 34.3-85.2 72.1-4.5 13.3-6.8 35.2-4.8 46.9 1.5 8.9 1.5 8.6-.8 8.7-10.9.3-28.6 6.6-39.4 14-6.1 4.2-16 14.2-20.2 20.3-5 7.2-10.8 20.2-12.7 28.6-2.1 8.9-2.3 25.7-.4 34.5 5.1 24.3 21.5 45.7 43.8 56.9C57 368 77.1 373.3 96 375.5c2.5.3 6.1.7 8 1 18.1 2.4 57 2.5 64.2 0 .7-.2 2.9-.6 4.8-.9 3.1-.5 9.8-1.7 15.5-3 1.1-.2 3.8-.9 6-1.4 4.4-1.2 22.2-4.8 27-5.6 1.7-.2 5-.8 7.5-1.1 2.5-.4 5.3-.9 6.2-1 .9-.2 4.8-.7 8.5-1 3.7-.4 7.7-.9 8.7-1.1 8.9-1.7 58.9-2.2 84.6-1 25.2 1.3 26.1 1.3 35.5 2.1 35.2 3.1 56.2-1.9 70.5-16.5 3.6-3.6 7.6-8.9 8.9-11.6 1.2-2.7 2.6-5.6 3.1-6.4.4-.9 1.3-4.9 2-8.9 5.3-31.6-17.9-59.4-49.6-59.6h-9.2l2-5c3.3-8.4 5.9-21.4 6.2-30.8 1.3-41.6-24.9-78.6-64.5-91.2-10-3.1-12.2-3.5-25.7-3.9-11.3-.4-21.8 1.2-32.4 4.8l-6.6 2.3-4.7-7.4c-9.9-15.7-29.3-32.4-45.9-39.7-6.8-3-17.6-6.5-22.6-7.2-1.9-.3-5.1-.9-7.1-1.3-3.3-.8-25.4-1.2-26.1-.6z"/></svg>