<?xml version="1.0" encoding="UTF-8" standalone="no"?>
<!-- Generator: Adobe Illustrator 16.0.0, SVG Export Plug-In . SVG Version: 6.00 Build 0)  -->

<svg
   xmlns:dc="http://purl.org/dc/elements/1.1/"
   xmlns:cc="http://creativecommons.org/ns#"
   xmlns:rdf="http://www.w3.org/1999/02/22-rdf-syntax-ns#"
   xmlns:svg="http://www.w3.org/2000/svg"
   xmlns="http://www.w3.org/2000/svg"
   xmlns:sodipodi="http://sodipodi.sourceforge.net/DTD/sodipodi-0.dtd"
   xmlns:inkscape="http://www.inkscape.org/namespaces/inkscape"
   version="1.1"
   id="Layer_1"
   x="0px"
   y="0px"
   width="89.90638"
   height="90.04789"
   viewBox="0 0 89.90638 90.04789"
   enable-background="new 0 0 1928 848"
   xml:space="preserve"
   inkscape:version="0.91 r13725"
   sodipodi:docname="idtc.svg"><metadata
     id="metadata34"><rdf:RDF><cc:Work
         rdf:about=""><dc:format>image/svg+xml</dc:format><dc:type
           rdf:resource="http://purl.org/dc/dcmitype/StillImage" /><dc:title></dc:title></cc:Work></rdf:RDF></metadata><defs
     id="defs32" /><sodipodi:namedview
     pagecolor="#ffffff"
     bordercolor="#666666"
     borderopacity="1"
     objecttolerance="10"
     gridtolerance="10"
     guidetolerance="10"
     inkscape:pageopacity="0"
     inkscape:pageshadow="2"
     inkscape:window-width="1699"
     inkscape:window-height="772"
     id="namedview30"
     showgrid="false"
     fit-margin-top="0"
     fit-margin-left="0"
     fit-margin-right="0"
     fit-margin-bottom="0"
     inkscape:zoom="2.8284271"
     inkscape:cx="56.28481"
     inkscape:cy="38.654639"
     inkscape:window-x="0"
     inkscape:window-y="0"
     inkscape:window-maximized="0"
     inkscape:current-layer="iD_Tech" /><g
     id="iD_Tech"
     transform="translate(-16.314383,-14.197865)"><circle
       cx="61.293816"
       cy="59.124809"
       r="44.926945"
       id="circle4"
       style="fill:#ffffff" /><g
       id="g6"
       transform="matrix(0.1388762,0,0,0.1388762,2.4903686,0.62258557)"><g
         id="g8"><path
           d="m 423.127,99.01 c -178.716,0 -323.585,144.851 -323.585,323.56 0,178.729 144.869,323.585 323.585,323.585 178.702,0 323.585,-144.854 323.585,-323.585 0,-178.71 -144.883,-323.56 -323.585,-323.56 z m 0,612.276 c -159.208,0 -288.729,-129.521 -288.729,-288.718 0,-159.187 129.521,-288.717 288.729,-288.717 159.155,0 288.702,129.531 288.702,288.717 0,159.197 -129.547,288.718 -288.702,288.718 z"
           id="path10"
           inkscape:connector-curvature="0"
           style="fill:#94d500" /><g
           id="g12"><path
             d="m 423.127,157.969 c -145.936,0 -264.625,118.699 -264.625,264.601 0,145.92 118.691,264.624 264.625,264.624 145.893,0 264.626,-118.704 264.626,-264.624 0,-145.902 -118.734,-264.601 -264.626,-264.601 z m -75.133,310.564 0,117.813 -30.708,0 c -1.169,-0.171 -2.352,-0.252 -3.55,-0.252 -18.907,0 -34.245,-15.348 -34.245,-34.285 l 0,-43.901 0,-154.018 c 9.677,1.144 37.236,4.8 68.503,12.112 l 0,102.531 z m 0,-150.686 c 0,0.034 0,0.063 0,0.113 l 0,21.012 c -24.793,-1.923 -48.688,-3.088 -68.503,-3.786 l 0,-17.226 0,-49.882 68.503,0 0,49.769 z m 121.016,267.85 -82.717,0.041 0,-209.143 c 30.124,9.834 58.469,23.358 73.113,41.536 l 0,98.853 9.671,-0.051 c 49.527,-0.229 89.831,-40.759 89.831,-90.31 0,-49.547 -40.304,-90.028 -89.831,-90.272 l -9.671,-0.048 0,0.067 0,18.603 c -20.982,-5.425 -46.644,-9.434 -73.113,-12.392 l 0,-6.211 0,-27.378 0,-41.254 82.308,0 5.076,-0.098 c 85.401,2.665 153.982,72.98 153.982,158.982 0,87.532 -71.158,158.876 -158.649,159.075 z"
             id="path14"
             inkscape:connector-curvature="0"
             style="fill:#94d500" /></g></g></g></g></svg>