<?xml version="1.0" encoding="UTF-8" standalone="no"?>
<!-- Generator: Adobe Illustrator 14.0.0, SVG Export Plug-In . SVG Version: 6.00 Build 43363)  -->

<svg
   xmlns:dc="http://purl.org/dc/elements/1.1/"
   xmlns:cc="http://creativecommons.org/ns#"
   xmlns:rdf="http://www.w3.org/1999/02/22-rdf-syntax-ns#"
   xmlns:svg="http://www.w3.org/2000/svg"
   xmlns="http://www.w3.org/2000/svg"
   xmlns:sodipodi="http://sodipodi.sourceforge.net/DTD/sodipodi-0.dtd"
   xmlns:inkscape="http://www.inkscape.org/namespaces/inkscape"
   version="1.0"
   id="Layer_1"
   x="0px"
   y="0px"
   width="130"
   height="130"
   viewBox="0 0 502.08245 1968.6538"
   enable-background="new 0 0 612 792"
   xml:space="preserve"
   sodipodi:version="0.32"
   inkscape:version="0.91 r13725"
   sodipodi:docname="rit.svg"
   inkscape:output_extension="org.inkscape.output.svg.inkscape"><metadata
     id="metadata18"><rdf:RDF><cc:Work
         rdf:about=""><dc:format>image/svg+xml</dc:format><dc:type
           rdf:resource="http://purl.org/dc/dcmitype/StillImage" /><dc:title></dc:title></cc:Work></rdf:RDF></metadata><defs
     id="defs16"><inkscape:perspective
       sodipodi:type="inkscape:persp3d"
       inkscape:vp_x="0 : 396.00032 : 1"
       inkscape:vp_y="0 : 1000.0009 : 0"
       inkscape:vp_z="611.99996 : 396.00033 : 1"
       inkscape:persp3d-origin="305.99998 : 264.00024 : 1"
       id="perspective20" /></defs><sodipodi:namedview
     inkscape:window-height="1017"
     inkscape:window-width="1920"
     inkscape:pageshadow="2"
     inkscape:pageopacity="0.0"
     guidetolerance="10.0"
     gridtolerance="10.0"
     objecttolerance="10.0"
     borderopacity="1.0"
     bordercolor="#666666"
     pagecolor="#ffffff"
     id="base"
     showgrid="false"
     inkscape:zoom="5.33"
     inkscape:cx="56.630662"
     inkscape:cy="64.438455"
     inkscape:window-x="-8"
     inkscape:window-y="-8"
     inkscape:current-layer="Layer_1"
     inkscape:window-maximized="1"
     fit-margin-top="0"
     fit-margin-left="0"
     fit-margin-right="0"
     fit-margin-bottom="0" /><g
     id="g3"
     transform="matrix(8.4698075,0,0,8.4698075,-2334.9932,-2436.3143)"><path
       d="m 212.14,369.748 c 0,-1.125 -0.205,-3.067 1.125,-3.68 0.92,-0.409 5.418,-0.103 6.645,-0.103 9.201,0 14.313,6.338 14.313,15.335 0,14.824 -9.303,15.13 -22.083,15.13 l 0,-26.682 0,0 z m 15.335,27.705 c 10.121,-0.92 18.504,-6.543 18.504,-17.584 0,-14.211 -11.757,-16.869 -23.412,-16.869 -4.294,0.103 -8.69,0.307 -12.984,0.409 -5.827,-0.103 -11.757,-0.307 -17.584,-0.409 l 0,2.352 c 3.271,0 7.565,-0.103 8.69,3.476 0.92,2.76 0.92,10.326 0.92,13.597 l 0,28.831 c 0,3.271 0,10.837 -0.92,13.597 -1.125,3.477 -5.418,3.477 -8.69,3.477 l 0,2.352 c 5.111,-0.103 10.223,-0.307 15.335,-0.409 4.907,0.103 9.712,0.307 14.415,0.409 l 0,-2.352 c -3.271,0 -7.463,0.103 -8.69,-3.477 -0.92,-2.76 -0.92,-10.325 -0.92,-13.597 l 0,-12.063 c 5.418,0 5.009,0.613 8.383,4.498 l 16.971,21.061 4.805,5.93 c 2.556,-0.103 5.112,-0.307 7.667,-0.409 3.067,0.103 6.134,0.307 9.201,0.409 l 0,-2.352 c -5.214,-0.818 -6.748,-2.249 -10.019,-6.032 l -21.672,-24.845 0,0 z"
       id="path5"
       style="clip-rule:evenodd;fill-rule:evenodd"
       inkscape:connector-curvature="0" /><path
       d="m 299.416,411.255 c 0,3.271 0,10.837 -1.022,13.597 -1.329,3.477 -5.521,3.477 -8.792,3.477 l 0,2.352 c 5.111,-0.103 10.325,-0.307 15.437,-0.409 4.907,0.103 9.917,0.307 14.722,0.409 l 0,-2.352 c -3.271,0 -7.463,0 -8.791,-3.477 -1.023,-2.76 -1.023,-10.325 -1.023,-13.597 l 0,-28.831 c 0,-3.271 0,-10.836 1.023,-13.597 1.328,-3.476 5.52,-3.476 8.791,-3.476 l 0,-2.351 c -5.111,0.103 -10.223,0.307 -15.437,0.409 -4.907,-0.103 -9.815,-0.307 -14.722,-0.409 l 0,2.352 c 3.271,0 7.463,0 8.792,3.476 1.022,2.76 1.022,10.326 1.022,13.597 l 0,28.83 0,0 z"
       id="path7"
       style="clip-rule:evenodd;fill-rule:evenodd"
       inkscape:connector-curvature="0" /><path
       d="m 418.146,363 -62.773,0 0,15.949 2.352,0 c 0.41,-12.166 5.316,-12.677 15.438,-12.677 4.09,0 8.588,-0.307 8.588,2.76 l 0,48.459 c 0,7.565 -1.432,10.428 -11.348,10.837 l 0,2.352 c 5.52,-0.103 10.836,-0.307 16.256,-0.409 5.621,0.103 11.348,0.307 16.971,0.409 l 0,-2.352 c -9.918,-0.409 -11.35,-3.271 -11.35,-10.837 l 0,-48.459 c 0,-3.271 6.135,-2.76 9.918,-2.76 9.609,0 13.494,2.658 14.107,12.677 l 2.762,0 -0.921,-15.949 0,0 z"
       id="path9"
       style="clip-rule:evenodd;fill-rule:evenodd"
       inkscape:connector-curvature="0" /><path
       d="m 266.551,396.929 c 0,-2.247 1.821,-4.068 4.068,-4.068 2.247,0 4.068,1.821 4.068,4.068 0,2.247 -1.822,4.068 -4.068,4.068 -2.246,0 -4.068,-1.821 -4.068,-4.068 l 0,0 z"
       id="path11"
       inkscape:connector-curvature="0" /><path
       d="m 334.801,396.929 c 0,-2.247 1.822,-4.068 4.068,-4.068 2.246,0 4.068,1.821 4.068,4.068 0,2.247 -1.822,4.068 -4.068,4.068 -2.246,0 -4.068,-1.821 -4.068,-4.068 l 0,0 z"
       id="path13"
       inkscape:connector-curvature="0" /></g></svg>